<svg width="1793" height="485" viewBox="0 0 1793 485" fill="none" xmlns="http://www.w3.org/2000/svg">
<path d="M1258.08 1.46875H1178.37V475.95H1258.08V1.46875Z" fill="black"/>
<path d="M1407.01 1.46875H1327.3V475.95H1407.01V1.46875Z" fill="black"/>
<path d="M1780.12 389.884C1788.37 370.301 1792.52 348.508 1792.52 324.918C1792.52 301.329 1788.3 279.536 1780.12 259.953C1771.93 240.439 1760.26 223.481 1745.55 209.527C1730.73 195.574 1712.87 184.453 1692.53 176.613C1672.02 168.773 1649.25 164.801 1624.77 164.801C1600.28 164.801 1577.52 168.876 1557.07 176.924C1536.66 184.971 1518.77 196.161 1503.99 210.184C1489.24 224.137 1477.6 240.888 1469.42 259.987C1461.23 279.087 1457.05 300.293 1457.05 322.95C1457.05 346.953 1461.23 369.265 1469.42 389.262C1477.6 409.225 1489.14 426.391 1503.71 440.344C1518.29 454.297 1536.01 465.349 1556.38 473.189C1576.86 481.029 1599.45 485.001 1623.49 485.001C1647.53 485.001 1671.46 481.029 1692.15 473.189C1712.7 465.349 1730.66 454.297 1745.44 440.275C1760.19 426.321 1771.83 409.363 1780.02 389.849L1780.08 389.919L1780.12 389.884ZM1688.87 392.958C1672.84 410.192 1651.29 418.896 1624.77 418.896C1598.24 418.896 1576.66 410.192 1560.67 392.958C1544.78 375.931 1536.77 352.79 1536.77 324.228C1536.77 295.665 1544.81 274.424 1560.67 257.19C1576.69 239.748 1598.31 230.906 1624.84 230.906C1651.36 230.906 1672.95 239.748 1689.04 257.19C1704.93 274.493 1712.94 297.219 1712.94 324.849C1712.94 352.479 1704.9 375.862 1689.04 392.889L1688.9 392.958H1688.87Z" fill="black"/>
<g clip-path="url(#clip0_846_305)">
<path d="M274.799 177.406C238.938 115.274 260.215 35.8607 322.347 0L419.74 168.665C455.601 230.797 434.324 310.21 372.192 346.071L274.799 177.406ZM372.142 346.071H177.356C177.356 417.792 235.492 475.929 307.213 475.929H502C502 404.207 443.864 346.071 372.142 346.071ZM274.799 177.306C212.667 141.445 133.254 162.722 97.3933 224.854L0 393.569C62.1319 429.43 141.545 408.153 177.406 346.021L274.799 177.356V177.306Z" fill="url(#paint0_linear_846_305)"/>
</g>
<path d="M965.583 56.0765L959.194 41.0526C946.38 10.8665 914.087 -5.12455 883.176 1.47218L876.061 17.705L675.707 475.953H763.019L804.568 374.723L806.364 370.302H1011.59L1013.35 374.861L1052.41 475.953H1143.66L965.549 56.1111L965.583 56.0765ZM833.58 304.093L837.655 294.25L866.771 223.585C873.678 207.145 880.275 190.809 886.492 175.059C892.605 159.379 898.787 143.077 904.935 126.534L911.635 108.367L918.336 126.534C924.518 143.423 930.631 159.794 936.399 175.129C942.443 191.154 948.487 207.387 954.531 223.792L981.712 294.388L985.408 304.058H833.614L833.58 304.093Z" fill="black"/>
<path d="M274.801 177.407C238.94 115.274 260.217 35.8609 322.349 0L419.744 168.666C455.605 230.799 434.328 310.212 372.195 346.073L274.801 177.407ZM372.145 346.073H177.357C177.357 417.795 235.494 475.931 307.216 475.931H502.004C502.004 404.21 443.867 346.073 372.145 346.073ZM274.801 177.307C212.669 141.446 133.255 162.723 97.3941 224.855L0 393.521C62.1324 429.382 141.546 408.105 177.407 345.973L274.801 177.307Z" fill="url(#paint1_linear_846_305)"/>
<defs>
<linearGradient id="paint0_linear_846_305" x1="0" y1="237.989" x2="502" y2="237.989" gradientUnits="userSpaceOnUse">
<stop offset="0.11" stop-color="#F6FF88"/>
<stop offset="0.85" stop-color="#9EDCFF"/>
<stop offset="1" stop-color="#97D5F5"/>
</linearGradient>
<linearGradient id="paint1_linear_846_305" x1="-0.0499457" y1="237.941" x2="501.954" y2="237.941" gradientUnits="userSpaceOnUse">
<stop offset="0.11" stop-color="#F0FF40"/>
<stop offset="0.85" stop-color="#9EDCFF"/>
<stop offset="1" stop-color="#97D5F5"/>
</linearGradient>
<clipPath id="clip0_846_305">
<rect width="502" height="475.929" fill="white"/>
</clipPath>
</defs>
</svg>
